<?xml version="1.0" encoding="UTF-8"?>
<svg id="Layer_2" data-name="Layer 2" xmlns="http://www.w3.org/2000/svg" xmlns:xlink="http://www.w3.org/1999/xlink" viewBox="0 0 198.96 137.48">
  <defs>
    <style>
      .cls-1 {
        fill: url(#linear-gradient-2);
      }

      .cls-2 {
        fill: #3f3f3f;
      }

      .cls-3 {
        fill: #ffac42;
      }

      .cls-4 {
        fill: #f19700;
      }

      .cls-5 {
        letter-spacing: -.01em;
      }

      .cls-6 {
        font-family: DaysOne-Regular, 'Days One';
        font-size: 25.17px;
      }

      .cls-6, .cls-7 {
        fill: #fff;
      }

      .cls-8 {
        letter-spacing: 0em;
      }

      .cls-9 {
        fill: #e18701;
      }

      .cls-10 {
        fill: url(#linear-gradient-5);
      }

      .cls-11 {
        fill: none;
      }

      .cls-7 {
        font-family: MyriadPro-Regular, 'Myriad Pro';
        font-size: 30.66px;
      }

      .cls-12 {
        fill: url(#linear-gradient-3);
      }

      .cls-13 {
        fill: url(#linear-gradient);
      }

      .cls-14 {
        letter-spacing: -.04em;
      }

      .cls-15 {
        fill: url(#linear-gradient-4);
      }
    </style>
    <linearGradient id="linear-gradient" x1="64.04" y1="57.95" x2="80.65" y2="27.07" gradientTransform="translate(150.18) rotate(-180) scale(1 -1)" gradientUnits="userSpaceOnUse">
      <stop offset="0" stop-color="#983e04"/>
      <stop offset="1" stop-color="#f79a00"/>
    </linearGradient>
    <linearGradient id="linear-gradient-2" x1="102.1" y1="58.23" x2="118.17" y2="28.34" gradientTransform="matrix(1,0,0,1,0,0)" xlink:href="#linear-gradient"/>
    <linearGradient id="linear-gradient-3" x1="138.9" y1="86.14" x2="94.7" y2="58.26" gradientUnits="userSpaceOnUse">
      <stop offset="0" stop-color="#0f0f0f"/>
      <stop offset=".6" stop-color="#262626"/>
    </linearGradient>
    <linearGradient id="linear-gradient-4" x1="88.56" y1="54.28" x2="53.82" y2="87.8" xlink:href="#linear-gradient-3"/>
    <linearGradient id="linear-gradient-5" x1="61.52" y1="27.5" x2="54.98" y2="52.19" xlink:href="#linear-gradient-3"/>
  </defs>
  <g id="Layer_1-2" data-name="Layer 1">
    <g>
      <g>
        <text class="cls-6" transform="translate(0 130.51)"><tspan x="0" y="0" xml:space="preserve"> AMZ VI</tspan><tspan class="cls-5" x="110.91" y="0">S</tspan><tspan class="cls-14" x="130.14" y="0">T</tspan><tspan class="cls-8" x="147.58" y="0">AS</tspan></text>
        <g>
          <path class="cls-11" d="m93.89,22.15L79.65,1.94c-.1-.15-.29-.22-.46-.19l-46.84,9.13c-.71.14-1.07.94-.69,1.56l5.33,8.82"/>
          <path class="cls-11" d="m36.98,21.26c0,.07-.02.12-.09.15-.03,0-.05,0-.08,0l-12.33-4.65c-.13-.05-.22-.01-.28.11l-.35.69c-.03.07-.03.14.03.19l.11.13"/>
          <line class="cls-11" x1="23.99" y1="17.88" x2="30.8" y2="23.6"/>
          <path class="cls-11" d="m140.06,77.28l.65-39.91c0-.11.05-.21.13-.28l13.54-12.6"/>
          <line class="cls-11" x1="154.38" y1="24.48" x2="161.52" y2="17.78"/>
          <path class="cls-11" d="m161.52,17.78c.09.1.12.06.1-.14,0-.05-.02-.1-.06-.14-.16-.22-.32-.42-.46-.6-.1-.12-.26-.16-.4-.1l-9.16,3.71c-.24.1-.3.04-.16-.18,1.61-2.52,3.23-5.08,4.85-7.68.37-.59.32-1.04-.15-1.38"/>
          <path class="cls-11" d="m156.08,11.27L109.94.9c-.18-.04-.36.03-.47.18l-15.58,21.07"/>
          <path class="cls-11" d="m156.08,11.27c-.06.08-.08.22-.06.42,0,.09-.01.17-.06.24-1.73,2.64-3.43,5.29-5.1,7.97-.35.55-.63,1.14-1.22,1.38-8.11,3.29-16.22,6.58-24.34,9.85-.76.3-1.49.68-2.27.43-8.51-2.71-17.02-5.44-25.52-8.19-.94-.3-2.38-.6-3.52-1.09"/>
          <path class="cls-11" d="m93.98,22.3c-.05-.05-.08-.1-.09-.14"/>
          <line class="cls-11" x1="93.98" y1="22.3" x2="93.53" y2="22.41"/>
          <line class="cls-11" x1="93.53" y1="22.41" x2="63.31" y2="31.42"/>
          <path class="cls-11" d="m63.31,31.42l-26-9.73s-.07-.04-.08-.08c-.08-.27-.17-.38-.25-.34"/>
          <line class="cls-11" x1="161.52" y1="17.78" x2="118.83" y2="35.03"/>
          <path class="cls-11" d="m118.83,35.03c.07-.15-.04-.31-.32-.49-.39-.25-.75-.24-1.08.05-2.2,1.92-4.36,3.78-6.49,5.57"/>
          <line class="cls-11" x1="110.93" y1="40.16" x2="100.66" y2="48.99"/>
          <path class="cls-11" d="m94.28,54.48l-.34,1.25c-.03.1.01.16.11.19.06.01.13.01.22-.01"/>
          <path class="cls-11" d="m94.27,55.91s0,.02.01.03"/>
          <path class="cls-11" d="m63.31,31.42l8.75,3.31c.08.03.12.12.09.21-.17.4-.38.64-.64.74"/>
          <path class="cls-11" d="m71.51,35.67c-15.78-5.97-31.55-11.92-47.33-17.85-.09-.03-.15-.02-.19.05"/>
          <line class="cls-11" x1="114.21" y1="38.97" x2="118.83" y2="35.03"/>
          <line class="cls-11" x1="94.28" y1="54.48" x2="100.66" y2="48.99"/>
          <line class="cls-11" x1="140.06" y1="77.28" x2="139.96" y2="82.08"/>
          <path class="cls-11" d="m139.96,82.08l-.04,2.75c0,.11-.07.22-.17.27l-26.35,12.98"/>
          <line class="cls-11" x1="94.27" y1="55.91" x2="114.21" y2="38.97"/>
          <path class="cls-11" d="m71.51,35.67c.37.3.98.84,1.82,1.62,6.82,6.25,13.63,12.51,20.44,18.78.14.13.32.08.52-.13"/>
          <line class="cls-11" x1="51.75" y1="38.83" x2="46.18" y2="36.58"/>
          <path class="cls-3" d="m156.08,11.32c-.06.09-.08.24-.06.46,0,.1-.01.18-.06.26-1.75,2.88-3.47,5.77-5.17,8.69-.35.6-.63,1.24-1.24,1.51-8.21,3.59-16.42,7.17-24.64,10.74-.77.33-1.51.74-2.29.47-8.62-2.95-17.23-5.93-25.83-8.93-.95-.33-2.41-.66-3.57-1.19-.05-.06-.08-.1-.09-.15L108.9.2c.11-.16.3-.24.48-.19l46.71,11.31h0Z"/>
          <path class="cls-4" d="m93.89,22.15s.05.09.09.14l-.45.12-30.22,9-26-9.73s-.07-.04-.08-.08c-.08-.27-.17-.38-.25-.34l-5.33-8.82c-.37-.62-.02-1.42.69-1.56L79.19,1.75c.18-.03.36.04.46.19l14.24,20.21h0Z"/>
          <polygon class="cls-13" points="94 22.29 94.09 57.85 47.21 35.82 94 22.29"/>
          <path class="cls-3" d="m36.98,21.26c.08-.04.17.08.25.34.01.04.04.07.08.08l26,9.73,8.75,3.31c.08.03.12.12.09.21-.17.4-.38.64-.64.74-15.78-5.97-31.55-11.92-47.33-17.85-.09-.03-.15-.02-.19.05l-.11-.13c-.05-.06-.06-.12-.03-.19l.35-.69c.06-.12.16-.16.28-.11l12.33,4.65s.05.01.08,0c.07-.02.1-.07.09-.15h0Z"/>
          <polygon class="cls-1" points="93.98 22.3 93.88 57.85 140.76 37.34 93.98 22.3"/>
          <path class="cls-4" d="m94.28,55.94c-.21.22-.38.26-.52.13-6.81-6.26-13.62-12.52-20.44-18.78-.85-.78-1.46-1.32-1.82-1.62.26-.1.47-.34.64-.74.02-.05.02-.09,0-.13l11.29,10.27.24.22c1.98,1.83,7.71,7.11,9.86,9.09.22.21.48.24.75.11l-.34,1.25c-.03.1.01.16.11.19.06.01.13.01.22-.01,0,0,0,.02.01.03Z"/>
          <path class="cls-4" d="m118.83,35.03l-4.64,3.96-20.03,17.01c-.09.02-.16.03-.22.01-.1-.02-.14-.09-.11-.19l.34-1.25,6.41-5.52,10.32-8.87c2.14-1.8,4.32-3.66,6.53-5.59.33-.29.69-.3,1.09-.05.29.19.4.35.32.5h0Z"/>
          <polygon class="cls-2" points="94.27 55.91 140.71 37.36 161.52 17.78 118.83 35.03 94.27 55.91"/>
          <polygon class="cls-12" points="93.89 107.71 139.92 85.2 140.76 37.34 93.89 55.99 93.89 107.71"/>
          <polygon class="cls-15" points="46.29 36.5 94.03 56.03 93.89 107.71 47.17 85.15 46.29 36.5"/>
          <polygon class="cls-10" points="23.99 17.88 71.63 35.55 94.03 56.07 46.35 36.54 23.99 17.88"/>
          <path class="cls-9" d="m161.49,17.75l-31.88,12.88h0s0,0,0,0l-10.81,4.37-1.09-.63h.02s11.09-4.69,11.09-4.69h0c6.93-2.8,13.86-5.6,20.78-8.42.6-.24.87-.83,1.22-1.38,1.67-2.67,3.38-5.33,5.1-7.97.05-.07.07-.15.06-.24-.02-.2,0-.34.06-.42.47.33.52.79.15,1.38-1.62,2.6-3.23,5.16-4.85,7.68-.14.22-.09.28.16.18l9.16-3.71c.14-.06.3-.02.4.1.14.18.3.37.46.6.03.04.05.09.06.14.03.2,0,.24-.1.14Z"/>
          <polyline class="cls-9" points="128.84 29.7 128.85 29.7 128.85 29.7"/>
          <line class="cls-11" x1="72.14" y1="34.8" x2="72.06" y2="34.73"/>
        </g>
      </g>
      <text class="cls-7" transform="translate(186.12 126.41)"><tspan x="0" y="0">®</tspan></text>
    </g>
  </g>
</svg>