<?xml version="1.0" encoding="UTF-8"?>
<svg id="Layer_2" data-name="Layer 2" xmlns="http://www.w3.org/2000/svg" xmlns:xlink="http://www.w3.org/1999/xlink" viewBox="0 0 237.18 163.89">
  <defs>
    <style>
      .cls-1 {
        fill: url(#linear-gradient-2);
      }

      .cls-2 {
        letter-spacing: -.04em;
      }

      .cls-3 {
        fill: #3f3f3f;
      }

      .cls-4 {
        fill: #ffac42;
      }

      .cls-5 {
        font-family: MyriadPro-Regular, 'Myriad Pro';
        font-size: 36.55px;
      }

      .cls-6 {
        fill: #f19700;
      }

      .cls-7 {
        fill: #e18701;
      }

      .cls-8 {
        fill: url(#linear-gradient-5);
      }

      .cls-9 {
        fill: none;
      }

      .cls-10 {
        fill: url(#linear-gradient-3);
      }

      .cls-11 {
        fill: url(#linear-gradient);
      }

      .cls-12 {
        font-family: DaysOne-Regular, 'Days One';
        font-size: 30px;
      }

      .cls-13 {
        letter-spacing: -.01em;
      }

      .cls-14 {
        fill: url(#linear-gradient-4);
      }
    </style>
    <linearGradient id="linear-gradient" x1="274.52" y1="69.09" x2="294.32" y2="32.27" gradientTransform="translate(377.21) rotate(-180) scale(1 -1)" gradientUnits="userSpaceOnUse">
      <stop offset="0" stop-color="#983e04"/>
      <stop offset="1" stop-color="#f79a00"/>
    </linearGradient>
    <linearGradient id="linear-gradient-2" x1="121.71" y1="69.42" x2="140.86" y2="33.79" gradientTransform="matrix(1,0,0,1,0,0)" xlink:href="#linear-gradient"/>
    <linearGradient id="linear-gradient-3" x1="165.57" y1="102.68" x2="112.89" y2="69.45" gradientUnits="userSpaceOnUse">
      <stop offset="0" stop-color="#0f0f0f"/>
      <stop offset=".6" stop-color="#262626"/>
    </linearGradient>
    <linearGradient id="linear-gradient-4" x1="105.57" y1="64.71" x2="64.16" y2="104.66" xlink:href="#linear-gradient-3"/>
    <linearGradient id="linear-gradient-5" x1="73.34" y1="32.78" x2="65.54" y2="62.22" xlink:href="#linear-gradient-3"/>
  </defs>
  <g id="Layer_1-2" data-name="Layer 1">
    <g>
      <g>
        <text class="cls-12" transform="translate(0 155.58)"><tspan x="0" y="0" xml:space="preserve"> AMZ VI</tspan><tspan class="cls-13" x="132.22" y="0">S</tspan><tspan class="cls-2" x="155.14" y="0">T</tspan><tspan x="175.93" y="0">AS</tspan></text>
        <g>
          <path class="cls-9" d="m111.93,26.41L94.95,2.31c-.12-.18-.34-.26-.55-.22l-55.83,10.88c-.85.17-1.27,1.12-.83,1.86l6.35,10.51"/>
          <path class="cls-9" d="m44.08,25.35c0,.09-.03.15-.11.18-.03,0-.06,0-.09,0l-14.7-5.55c-.15-.06-.26-.02-.34.13l-.42.83c-.04.09-.03.16.03.23l.14.15"/>
          <line class="cls-9" x1="28.59" y1="21.31" x2="36.72" y2="28.13"/>
          <path class="cls-9" d="m166.96,92.12l.78-47.58c0-.13.06-.25.15-.33l16.14-15.03"/>
          <line class="cls-9" x1="184.03" y1="29.18" x2="192.55" y2="21.2"/>
          <path class="cls-9" d="m192.55,21.2c.11.12.15.07.11-.17,0-.06-.03-.11-.07-.17-.19-.26-.38-.5-.55-.71-.11-.14-.31-.19-.47-.12l-10.92,4.42c-.29.12-.35.04-.18-.22,1.92-3,3.85-6.05,5.78-9.15.44-.7.38-1.24-.18-1.64"/>
          <path class="cls-9" d="m186.06,13.44L131.06,1.08c-.21-.05-.43.04-.56.21l-18.57,25.12"/>
          <path class="cls-9" d="m186.06,13.44c-.07.1-.1.27-.08.51,0,.11-.01.2-.07.29-2.06,3.14-4.09,6.31-6.09,9.5-.41.66-.75,1.36-1.46,1.65-9.67,3.93-19.34,7.84-29.02,11.74-.91.36-1.77.81-2.7.51-10.15-3.23-20.29-6.48-30.42-9.76-1.12-.36-2.84-.72-4.2-1.3"/>
          <path class="cls-9" d="m112.03,26.58c-.05-.06-.09-.11-.11-.17"/>
          <line class="cls-9" x1="112.03" y1="26.58" x2="111.49" y2="26.72"/>
          <line class="cls-9" x1="111.49" y1="26.72" x2="75.47" y2="37.45"/>
          <path class="cls-9" d="m75.47,37.45l-30.99-11.6s-.08-.05-.09-.1c-.1-.32-.2-.46-.3-.41"/>
          <line class="cls-9" x1="192.55" y1="21.2" x2="141.65" y2="41.76"/>
          <path class="cls-9" d="m141.65,41.76c.09-.18-.04-.37-.39-.59-.47-.3-.9-.28-1.29.06-2.62,2.29-5.2,4.5-7.74,6.64"/>
          <line class="cls-9" x1="132.23" y1="47.87" x2="119.99" y2="58.4"/>
          <path class="cls-9" d="m112.39,64.95l-.4,1.49c-.03.12.01.19.13.22.07.02.16.01.26-.02"/>
          <path class="cls-9" d="m112.38,66.64s0,.02.02.04"/>
          <path class="cls-9" d="m75.47,37.45l10.43,3.95c.1.04.14.15.1.25-.2.47-.46.76-.76.88"/>
          <path class="cls-9" d="m85.24,42.52c-18.81-7.11-37.62-14.2-56.42-21.28-.11-.04-.18-.02-.22.06"/>
          <line class="cls-9" x1="136.14" y1="46.46" x2="141.65" y2="41.76"/>
          <line class="cls-9" x1="112.39" y1="64.95" x2="119.99" y2="58.4"/>
          <line class="cls-9" x1="166.96" y1="92.12" x2="166.85" y2="97.85"/>
          <path class="cls-9" d="m166.85,97.85l-.04,3.28c0,.14-.08.26-.2.32l-31.41,15.47"/>
          <line class="cls-9" x1="112.38" y1="66.64" x2="136.14" y2="46.46"/>
          <path class="cls-9" d="m85.24,42.52c.44.36,1.16,1,2.17,1.93,8.13,7.46,16.25,14.92,24.36,22.39.17.15.38.1.62-.16"/>
          <line class="cls-9" x1="61.69" y1="46.28" x2="55.05" y2="43.61"/>
          <path class="cls-4" d="m186.06,13.5c-.07.11-.1.29-.08.55,0,.11-.01.22-.07.31-2.09,3.43-4.14,6.88-6.16,10.36-.42.72-.75,1.48-1.47,1.8-9.79,4.28-19.58,8.55-29.37,12.81-.92.4-1.8.88-2.74.56-10.27-3.52-20.54-7.07-30.8-10.64-1.14-.4-2.87-.79-4.25-1.41-.05-.07-.09-.13-.11-.18L129.81.24c.13-.19.35-.28.57-.23l55.68,13.48h0Z"/>
          <path class="cls-6" d="m111.93,26.41c.02.05.05.11.11.17l-.54.14-36.03,10.73-30.99-11.6s-.08-.05-.09-.1c-.1-.32-.2-.46-.3-.41l-6.35-10.51c-.45-.74-.02-1.7.83-1.86L94.4,2.09c.21-.04.43.05.55.22l16.98,24.1h0Z"/>
          <polygon class="cls-11" points="112.05 26.57 112.17 68.96 56.28 42.7 112.05 26.57"/>
          <path class="cls-4" d="m44.08,25.35c.1-.04.2.09.3.41.01.04.05.08.09.1l30.99,11.6,10.43,3.95c.1.04.14.15.1.25-.2.47-.46.76-.76.88-18.81-7.11-37.62-14.2-56.42-21.28-.11-.04-.18-.02-.22.06l-.14-.15c-.06-.07-.07-.14-.03-.23l.42-.83c.07-.15.18-.19.34-.13l14.7,5.55s.06.01.09,0c.09-.03.12-.09.11-.18h0Z"/>
          <polygon class="cls-1" points="112.03 26.58 111.91 68.96 167.8 44.52 112.03 26.58"/>
          <path class="cls-6" d="m112.39,66.68c-.25.26-.45.31-.62.16-8.12-7.47-16.23-14.93-24.36-22.39-1.01-.93-1.74-1.57-2.17-1.93.31-.11.56-.41.76-.88.02-.05.02-.11,0-.16l13.46,12.24.28.26c2.36,2.18,9.19,8.48,11.75,10.84.27.25.57.29.9.13l-.4,1.49c-.03.12.01.19.13.22.07.02.16.01.26-.02,0,0,0,.02.02.04Z"/>
          <path class="cls-6" d="m141.65,41.76l-5.54,4.72-23.88,20.27c-.11.03-.2.03-.27.02-.12-.03-.17-.11-.13-.22l.41-1.49,7.64-6.58,12.3-10.58c2.55-2.15,5.15-4.37,7.78-6.67.39-.34.83-.36,1.3-.06.34.22.47.42.39.59h0Z"/>
          <polygon class="cls-3" points="112.38 66.64 167.74 44.54 192.55 21.2 141.65 41.76 112.38 66.64"/>
          <polygon class="cls-10" points="111.92 128.4 166.79 101.56 167.8 44.52 111.92 66.75 111.92 128.4"/>
          <polygon class="cls-14" points="55.19 43.51 112.09 66.8 111.92 128.4 56.23 101.5 55.19 43.51"/>
          <polygon class="cls-8" points="28.59 21.31 85.39 42.37 112.09 66.84 55.25 43.56 28.59 21.31"/>
          <path class="cls-7" d="m192.51,21.16l-38,15.35h0s0,0,0,0l-12.89,5.21-1.29-.75h.02s13.22-5.59,13.22-5.59h0c8.26-3.34,16.52-6.68,24.78-10.03.71-.29,1.04-.99,1.46-1.65,1.99-3.19,4.02-6.35,6.09-9.5.06-.09.08-.18.07-.29-.02-.24,0-.41.08-.51.56.4.62.94.18,1.64-1.93,3.1-3.86,6.15-5.78,9.15-.17.26-.11.34.18.22l10.92-4.42c.17-.07.36-.02.47.12.17.21.35.45.55.71.04.05.06.11.07.17.03.23,0,.29-.11.17Z"/>
          <polyline class="cls-7" points="153.59 35.41 153.59 35.41 153.59 35.41"/>
          <line class="cls-9" x1="86" y1="41.48" x2="85.9" y2="41.4"/>
        </g>
      </g>
      <text class="cls-5" transform="translate(221.87 150.69)"><tspan x="0" y="0">®</tspan></text>
    </g>
  </g>
</svg>