<svg xmlns:xlink="http://www.w3.org/1999/xlink" xmlns="http://www.w3.org/2000/svg" viewBox="0 0 128 128" width="128"  height="128" ><link xmlns="" type="text/css" rel="stylesheet" id="dark-mode-custom-link"/><link xmlns="" type="text/css" rel="stylesheet" id="dark-mode-general-link"/><style xmlns="" lang="en" type="text/css" id="dark-mode-custom-style"/><style xmlns="" lang="en" type="text/css" id="dark-mode-native-style"/><style xmlns="" lang="en" type="text/css" id="dark-mode-native-sheet"/><script xmlns=""/><defs><style>.cls-1{fill:#fcbf1e;}.cls-2{fill:#035aa6;}.cls-3{fill:#120136;}</style></defs><title>color</title><g id="idea"><circle class="cls-1" cx="64" cy="48.472" r="42.427"/><path class="cls-2" d="M50.455,88.245H77.545a4,4,0,0,1,4,4V102.6a6,6,0,0,1-6,6H52.455a6,6,0,0,1-6-6V92.245A4,4,0,0,1,50.455,88.245Z"/><path class="cls-3" d="M57.338,108.6v6.69a6.662,6.662,0,0,0,13.324,0V108.6Z"/><path class="cls-3" d="M70.99,88.245h-4V73.616H61.348V88.245h-4V73.616H54.786a6.231,6.231,0,0,1-6.224-6.224V66.7a6.231,6.231,0,0,1,6.224-6.224h.338A6.231,6.231,0,0,1,61.348,66.7v2.916H66.99V66.7a6.224,6.224,0,1,1,12.448,0v.692a6.231,6.231,0,0,1-6.224,6.224H70.99Zm0-18.629h2.224a2.227,2.227,0,0,0,2.224-2.224V66.7a2.224,2.224,0,1,0-4.448,0Zm-16.2-5.14A2.227,2.227,0,0,0,52.562,66.7v.692a2.227,2.227,0,0,0,2.224,2.224h2.562V66.7a2.227,2.227,0,0,0-2.224-2.224Z"/><path class="cls-3" d="M65.054,96.424h-18.6v4h18.6a2,2,0,0,0,0-4Z"/></g></svg>