<svg xmlns:xlink="http://www.w3.org/1999/xlink" xmlns="http://www.w3.org/2000/svg" viewBox="0 0 128 128" width="128"  height="128" ><link xmlns="" type="text/css" rel="stylesheet" id="dark-mode-custom-link"/><link xmlns="" type="text/css" rel="stylesheet" id="dark-mode-general-link"/><style xmlns="" lang="en" type="text/css" id="dark-mode-custom-style"/><style xmlns="" lang="en" type="text/css" id="dark-mode-native-style"/><style xmlns="" lang="en" type="text/css" id="dark-mode-native-sheet"/><script xmlns=""/><defs><style>.cls-1{fill:#035aa6;}.cls-2{fill:#120136;}.cls-3{fill:#e0a41e;}.cls-4{fill:#f4e1b5;}.cls-5{fill:#fcbf1e;}</style></defs><title>color</title><g id="research"><circle class="cls-1" cx="62.306" cy="58.671" r="52.959"/><path class="cls-2" d="M62.306,3.712a54.96,54.96,0,1,0,54.959,54.959A55.021,55.021,0,0,0,62.306,3.712Zm50.908,52.959H92.133c-.548-19.229-8.977-37.156-22.571-48.434A51.031,51.031,0,0,1,113.214,56.671Zm-76.734,4H88.132c-.149,19.981-13.528,41.737-25.96,48.435C49.858,101.945,36.675,80.66,36.48,60.671Zm0-4c.437-19.86,12.682-40.494,25.826-48.72,13.383,8.066,25.474,28.813,25.826,48.72ZM55.051,8.237C41.456,19.516,33.027,37.442,32.478,56.671H11.4A51.032,51.032,0,0,1,55.051,8.237ZM11.4,60.671H32.478c.549,19.23,8.979,37.157,22.573,48.435A51.032,51.032,0,0,1,11.4,60.671Zm58.164,48.435C83.155,97.828,91.585,79.9,92.133,60.671h21.081A51.031,51.031,0,0,1,69.561,109.106Z"/><path class="cls-3" d="M114.332,121.128h0a8.642,8.642,0,0,1-12.021-3.561L80.485,74.717,91.062,68.61l26.2,40.327A8.642,8.642,0,0,1,114.332,121.128Z"/><circle class="cls-4" cx="76.959" cy="56.397" r="27.677"/><path class="cls-5" d="M94,48.559a2,2,0,0,1-1.734-1,17.7,17.7,0,0,0-24.147-6.47,2,2,0,0,1-2-3.465,21.7,21.7,0,0,1,29.611,7.935,2,2,0,0,1-1.73,3Z"/><path class="cls-5" d="M100.055,98.4a2,2,0,0,1-1.735-1L92.492,87.3a2,2,0,1,1,3.465-2L101.785,95.4a2,2,0,0,1-1.73,3Z"/></g></svg>