<svg xmlns:xlink="http://www.w3.org/1999/xlink" xmlns="http://www.w3.org/2000/svg" viewBox="0 0 128 128" width="128"  height="128" ><link xmlns="" type="text/css" rel="stylesheet" id="dark-mode-custom-link"/><link xmlns="" type="text/css" rel="stylesheet" id="dark-mode-general-link"/><style xmlns="" lang="en" type="text/css" id="dark-mode-custom-style"/><style xmlns="" lang="en" type="text/css" id="dark-mode-native-style"/><style xmlns="" lang="en" type="text/css" id="dark-mode-native-sheet"/><script xmlns=""/><defs><style>.cls-1{fill:#e0a41e;}.cls-2{fill:#f4e1b5;}.cls-3{fill:#fcbf1e;}.cls-4{fill:#035aa6;}</style></defs><title>color</title><g id="money"><path class="cls-1" d="M102.207,121.409h0a10.873,10.873,0,0,1-15.125-4.481L59.62,63.014,72.929,55.33l32.96,50.74A10.873,10.873,0,0,1,102.207,121.409Z"/><circle class="cls-2" cx="55.184" cy="39.963" r="34.824"/><path class="cls-3" d="M84.243,92.291a2,2,0,0,1-1.734-1l-7.333-12.7a2,2,0,1,1,3.464-2l7.333,12.7a2,2,0,0,1-1.73,3Z"/><path class="cls-4" d="M56.5,35.54c-4.269-1.7-5.191-2.379-5.191-3.8,0-1.545.493-1.906.679-2.043,1.714-1.256,6.624-.664,9.508.245a4.163,4.163,0,0,0,2.532-7.931,30.951,30.951,0,0,0-4.678-1.072V19.389a4.163,4.163,0,1,0-8.325,0v1.768a11.508,11.508,0,0,0-3.941,1.808c-1.871,1.365-4.1,3.994-4.1,8.77,0,7.375,6.277,9.88,10.429,11.538,4.7,1.876,5.653,2.641,5.653,4.545,0,1.945-.615,2.374-.818,2.515a5.491,5.491,0,0,1-3.059.621h0A21.859,21.859,0,0,1,48.6,49.683a4.163,4.163,0,0,0-2.915,7.8,31.2,31.2,0,0,0,5.336,1.427v1.63a4.163,4.163,0,1,0,8.325,0V58.8a11.273,11.273,0,0,0,3.641-1.628c2.008-1.392,4.4-4.146,4.4-9.357C67.388,39.888,60.834,37.271,56.5,35.54Z"/></g></svg>