<svg xmlns:xlink="http://www.w3.org/1999/xlink" xmlns="http://www.w3.org/2000/svg" viewBox="0 0 128 128" width="128"  height="128" ><link xmlns="" type="text/css" rel="stylesheet" id="dark-mode-custom-link"/><link xmlns="" type="text/css" rel="stylesheet" id="dark-mode-general-link"/><style xmlns="" lang="en" type="text/css" id="dark-mode-custom-style"/><style xmlns="" lang="en" type="text/css" id="dark-mode-native-style"/><style xmlns="" lang="en" type="text/css" id="dark-mode-native-sheet"/><script xmlns=""/><defs><style>.cls-1{fill:#035aa6;}.cls-2{fill:#fcbf1e;}.cls-3{fill:#120136;}</style></defs><title>color</title><g id="seo_tag" data-name="seo tag"><path class="cls-1" d="M90.609,28.66,66.867,15.744a6,6,0,0,0-5.734,0L37.391,28.66a6,6,0,0,0-3.133,5.271v82.858a6,6,0,0,0,6,6H87.742a6,6,0,0,0,6-6V33.931A6,6,0,0,0,90.609,28.66ZM64,45.434a7.625,7.625,0,1,1,7.625-7.625A7.625,7.625,0,0,1,64,45.434Z"/><path class="cls-2" d="M65.577,97.743,53.458,78.218a6.863,6.863,0,0,1,1.455-9.053,6.662,6.662,0,0,1,9.711,1.777l5.824,9.384a2.664,2.664,0,0,0,3.965.645l26.292-21.808a6.662,6.662,0,1,1,8.507,10.256l-35.7,29.616A5.33,5.33,0,0,1,65.577,97.743Z"/><path class="cls-3" d="M71.557,38.771a7.394,7.394,0,0,0-.578-4.024c-.033.012-.067.016-.1.029A14.407,14.407,0,1,1,79.916,21.4c0,.469-.031.935-.075,1.4l3.646,1.984a1.971,1.971,0,0,0,.229-.658,18.406,18.406,0,1,0-18.2,15.681A18.335,18.335,0,0,0,71.557,38.771Z"/></g></svg>