<svg xmlns:xlink="http://www.w3.org/1999/xlink" xmlns="http://www.w3.org/2000/svg" viewBox="0 0 128 128" width="128"  height="128" ><link xmlns="" type="text/css" rel="stylesheet" id="dark-mode-custom-link"/><link xmlns="" type="text/css" rel="stylesheet" id="dark-mode-general-link"/><style xmlns="" lang="en" type="text/css" id="dark-mode-custom-style"/><style xmlns="" lang="en" type="text/css" id="dark-mode-native-style"/><style xmlns="" lang="en" type="text/css" id="dark-mode-native-sheet"/><script xmlns=""/><defs><style>.cls-1{fill:#035aa6;}.cls-2{fill:#ce1b1b;}.cls-3{fill:#f92121;}.cls-4{fill:#e5c480;}.cls-5{fill:#40bad5;}.cls-6{fill:#f4e1b5;}</style></defs><title>color</title><g id="communication"><path class="cls-1" d="M86.089,118.243H11.778a6.553,6.553,0,0,1-6.553-6.553V93.065A6.554,6.554,0,0,1,10.7,86.6l38.235-6.392L87.189,86.72a6.553,6.553,0,0,1,5.454,6.46v18.51A6.553,6.553,0,0,1,86.089,118.243Z"/><polygon class="cls-2" points="55.352 93.053 42.515 93.053 40.135 77.63 57.733 77.63 55.352 93.053"/><polygon class="cls-3" points="55.352 93.053 42.515 93.053 39.135 118.243 58.733 118.243 55.352 93.053"/><circle class="cls-4" cx="48.934" cy="49.066" r="33.469"/><path class="cls-5" d="M117.573,9.757H62.085a5.2,5.2,0,0,0-5.2,5.2V46.941a5.2,5.2,0,0,0,5.2,5.2H88.718a3.148,3.148,0,0,1,2.936,2.011l2.607,6.733a3.148,3.148,0,0,0,5.872,0l2.607-6.733a3.15,3.15,0,0,1,2.937-2.011h11.9a5.2,5.2,0,0,0,5.2-5.2V14.959A5.2,5.2,0,0,0,117.573,9.757Z"/><path class="cls-6" d="M110.615,28.339H69.043a2,2,0,0,1,0-4h41.572a2,2,0,1,1,0,4Z"/><path class="cls-6" d="M87.615,39.281H69.043a2,2,0,0,1,0-4H87.615a2,2,0,0,1,0,4Z"/></g></svg>