<svg xmlns:xlink="http://www.w3.org/1999/xlink" xmlns="http://www.w3.org/2000/svg" viewBox="0 0 128 128" width="128"  height="128" ><link xmlns="" type="text/css" rel="stylesheet" id="dark-mode-custom-link"/><link xmlns="" type="text/css" rel="stylesheet" id="dark-mode-general-link"/><style xmlns="" lang="en" type="text/css" id="dark-mode-custom-style"/><style xmlns="" lang="en" type="text/css" id="dark-mode-native-style"/><style xmlns="" lang="en" type="text/css" id="dark-mode-native-sheet"/><script xmlns=""/><defs><style>.cls-1{fill:#f4e1b5;}.cls-2{fill:#035aa6;}.cls-3{fill:#fcbf1e;}.cls-4{fill:#120136;}</style></defs><title>color</title><g id="writing"><rect class="cls-1" x="20.839" y="4.669" width="86.322" height="109.813" rx="6"/><path class="cls-2" d="M92.039,27.271H35.187a2,2,0,0,1,0-4H92.039a2,2,0,0,1,0,4Z"/><path class="cls-2" d="M92.039,41.213H35.187a2,2,0,0,1,0-4H92.039a2,2,0,0,1,0,4Z"/><path class="cls-2" d="M92.427,55.156H35.573a2,2,0,0,1,0-4H92.427a2,2,0,0,1,0,4Z"/><path class="cls-2" d="M92.427,69.1H35.573a2,2,0,1,1,0-4H92.427a2,2,0,0,1,0,4Z"/><path class="cls-2" d="M57.427,83.041H35.573a2,2,0,0,1,0-4H57.427a2,2,0,0,1,0,4Z"/><path class="cls-3" d="M71.818,82.209,56.86,108.118H91.972L77.014,82.209A3,3,0,0,0,71.818,82.209Z"/><path class="cls-4" d="M72.02,81.858,65.8,92.64H83.036L76.811,81.858A2.766,2.766,0,0,0,72.02,81.858Z"/><path class="cls-2" d="M56.86,108.118H91.972a0,0,0,0,1,0,0v11.214a4,4,0,0,1-4,4H60.86a4,4,0,0,1-4-4V108.118A0,0,0,0,1,56.86,108.118Z"/></g></svg>