<svg xmlns:xlink="http://www.w3.org/1999/xlink" xmlns="http://www.w3.org/2000/svg" viewBox="0 0 128 128" width="128"  height="128" ><link xmlns="" type="text/css" rel="stylesheet" id="dark-mode-custom-link"/><link xmlns="" type="text/css" rel="stylesheet" id="dark-mode-general-link"/><style xmlns="" lang="en" type="text/css" id="dark-mode-custom-style"/><style xmlns="" lang="en" type="text/css" id="dark-mode-native-style"/><style xmlns="" lang="en" type="text/css" id="dark-mode-native-sheet"/><script xmlns=""/><defs><style>.cls-1{fill:#40bad5;}.cls-2{fill:#fcbf1e;}.cls-3{fill:#120136;}.cls-4{fill:#035aa6;}</style></defs><title>color</title><g id="business_report" data-name="business report"><rect class="cls-1" x="15.829" y="9.893" width="96.341" height="108.214" rx="6"/><path class="cls-2" d="M105.838,9.893H22.162a6.332,6.332,0,0,0-6.333,6.332v14.7h96.342v-14.7A6.332,6.332,0,0,0,105.838,9.893Z"/><path class="cls-3" d="M98.857,23.929H84.286a2,2,0,0,1,0-4H98.857a2,2,0,0,1,0,4Z"/><path class="cls-4" d="M84.786,93.616H43.214a2,2,0,1,1,0-4H84.786a2,2,0,0,1,0,4Z"/><path class="cls-4" d="M84.786,104.559H43.214a2,2,0,0,1,0-4H84.786a2,2,0,0,1,0,4Z"/><path class="cls-3" d="M94.8,45.152h0a5.837,5.837,0,0,0-9.447,6.536L74.6,62.158a5.83,5.83,0,0,0-6.771.895s-7.964-4.284-7.964-4.4a5.84,5.84,0,1,0-11.176,2.368L39.6,70.616a5.85,5.85,0,1,0,2.927,2.727L51.473,63.9a5.9,5.9,0,0,0,2.554.592,5.485,5.485,0,0,0,4.233-1.825l7.772,3.955a6.634,6.634,0,0,0,1.669,4.8,5.886,5.886,0,0,0,4.129,1.71,5.808,5.808,0,0,0,5.84-5.84,6.016,6.016,0,0,0-.41-2.147L88.15,54.545A5.837,5.837,0,0,0,94.8,45.152Z"/></g></svg>