<svg xmlns:xlink="http://www.w3.org/1999/xlink" xmlns="http://www.w3.org/2000/svg" viewBox="0 0 128 128" width="128"  height="128" ><link xmlns="" type="text/css" rel="stylesheet" id="dark-mode-custom-link"/><link xmlns="" type="text/css" rel="stylesheet" id="dark-mode-general-link"/><style xmlns="" lang="en" type="text/css" id="dark-mode-custom-style"/><style xmlns="" lang="en" type="text/css" id="dark-mode-native-style"/><style xmlns="" lang="en" type="text/css" id="dark-mode-native-sheet"/><script xmlns=""/><defs><style>.cls-1{fill:#40bad5;}.cls-2{fill:#fcbf1e;}.cls-3{fill:#120136;}.cls-4{fill:#035aa6;}</style></defs><title>color</title><g id="customer_service" data-name="customer service"><rect class="cls-1" x="15.829" y="9.893" width="96.341" height="108.214" rx="6"/><path class="cls-2" d="M105.838,9.893H22.162a6.332,6.332,0,0,0-6.333,6.332v14.7h96.342v-14.7A6.332,6.332,0,0,0,105.838,9.893Z"/><path class="cls-3" d="M98.857,23.929H84.286a2,2,0,0,1,0-4H98.857a2,2,0,0,1,0,4Z"/><circle class="cls-4" cx="64" cy="74.162" r="34.838"/><path class="cls-3" d="M64,37.325a36.838,36.838,0,1,0,36.838,36.837A36.88,36.88,0,0,0,64,37.325ZM96.771,72.162h-12.5A44.1,44.1,0,0,0,71.02,42.088,32.9,32.9,0,0,1,96.771,72.162ZM64,106.775c-9.572-6.416-15.678-17.994-16.267-30.613H80.267C79.678,88.78,73.571,100.359,64,106.775ZM47.733,72.162c.589-12.618,6.7-24.2,16.267-30.613,9.572,6.417,15.678,17.995,16.267,30.613ZM56.98,42.088A44.1,44.1,0,0,0,43.734,72.162H31.229A32.9,32.9,0,0,1,56.98,42.088ZM31.229,76.162H43.734A44.1,44.1,0,0,0,56.98,106.237,32.9,32.9,0,0,1,31.229,76.162ZM71.02,106.237A44.1,44.1,0,0,0,84.266,76.162h12.5A32.9,32.9,0,0,1,71.02,106.237Z"/></g></svg>