<svg xmlns="http://www.w3.org/2000/svg" xmlns:xlink="http://www.w3.org/1999/xlink" version="1.1" id="Layer_1" x="0px" y="0px" viewBox="0 0 3000 3000" style="enable-background:new 0 0 3000 3000;" xml:space="preserve" width="3000"  height="3000" ><link xmlns="" type="text/css" rel="stylesheet" id="dark-mode-custom-link"/><link xmlns="" type="text/css" rel="stylesheet" id="dark-mode-general-link"/><style xmlns="" lang="en" type="text/css" id="dark-mode-custom-style"/><style xmlns="" lang="en" type="text/css" id="dark-mode-native-style"/><style xmlns="" lang="en" type="text/css" id="dark-mode-native-sheet"/><script xmlns=""/>
<style type="text/css">
	.st0{fill:#F8F6F0;}
	.st1{fill:#FAD8B8;}
	.st2{fill:#2A1C1C;}
	.st3{fill:#5F5555;}
	.st4{fill:#3E9F8E;}
	.st5{fill-rule:evenodd;clip-rule:evenodd;fill:#FFFFFF;}
	.st6{fill:#FFFFFF;}
	.st7{fill:#F0A58C;}
	.st8{fill-rule:evenodd;clip-rule:evenodd;fill:#3E9F8E;}
	.st9{fill-rule:evenodd;clip-rule:evenodd;fill:#F0A58C;}
	.st10{fill:#8D4040;}
	.st11{fill:#2B1C1C;}
	.st12{fill:#1E1313;}
	.st13{fill:#2A1C1C;stroke:#2B1C1C;stroke-width:10;}
	.st14{fill:#F6F6F6;}
	.st15{fill:none;stroke:#2A1C1C;stroke-width:5;stroke-linecap:round;}
	.st16{fill:#8F8F8F;}
	.st17{fill-rule:evenodd;clip-rule:evenodd;fill:#FFFFFF;stroke:#2B1C1C;stroke-width:10;}
	.st18{fill:none;stroke:#2B1C1C;stroke-width:10;}
	.st19{fill-rule:evenodd;clip-rule:evenodd;fill:#2A1C1C;}
	.st20{fill:none;stroke:#FFFFFF;stroke-width:10;}
</style>
<g>
	<path class="st0" d="M1522,483C519.5,650.5-103.42,2106.81,474.5,2489.5c1040.5,689,2328.1-55.4,2342-844   c9.5-539-750-198-542.5-588C2568.25,504.46,2524.5,315.5,1522,483z"/>
	<path class="st1" d="M2323,2496c-66.3,5.98-179.72,1-269-5.12l-0.44,1.58c-3.58,13.02-15.42,22.04-28.92,22.04H1613l-864.03-24.8   c-15.69-0.45-30.58-7.03-41.47-18.32l-8.56-8.88H277v36c0,38.66,31.34,70,70,70h2340.5c38.66,0,70-31.34,70-70v-36h-355.06   C2381.54,2481.39,2355.87,2493.04,2323,2496z"/>
	<path class="st2" d="M1962,2483.5h-328.5l-20.66,6.73L698,2461.52l9.51,9.86c10.89,11.29,25.78,17.87,41.47,18.32l864.03,24.8   h411.64c13.5,0,25.34-9.02,28.92-22.04l0.44-1.58C2017.78,2488.39,1985.52,2485.71,1962,2483.5z"/>
	<path class="st3" d="M567.5,1876l25-21l857.04-28.89c19.14-0.64,36.05,12.37,40.33,31.04l143.63,626.35l-20.66,6.73l-149.06-619.53   c-2.21-9.16-10.5-15.54-19.92-15.32L567.5,1876z"/>
	<path class="st2" d="M698,2461.52l914.84,28.71l-149.06-619.53c-2.21-9.16-10.5-15.54-19.92-15.32L567.5,1876L698,2461.52z"/>
	<path class="st4" d="M835.5,510c189-117,508-69.5,395.5,100.5c93.5,54-35.88,80.29,0,185.5c50.88,149.2,91,261.49-49.5,278   c-33.35,3.92-61.33-3.54-84.5-17.53l-1.16-1.02c-10.02,6.12-21.1,11.71-33.34,16.75c-5.96,9.19-7.78,19.58-7.48,29.3   c11.63,0,22.28,6.98,27.9,18c9.02-3,28.08-4.8,32.08,12c57.5,38,175.5,120,187.5,144c13.3,26.59,80.8,277.1,98.06,368.5l3.94,19.8   c179.03-129.63,295.5-340.36,295.5-578.3c0-394.05-319.44-713.5-713.5-713.5C592.45,372,273,691.45,273,1085.5   c0,242.71,121.18,457.11,306.34,586L577,1664c-14.8-18-6.17-45.17,0-56.5c6.17-52,18.8-168.6,20-219c1.5-63,29-177,46.5-194   c14-13.6,81.57-44,113.61-57.5c2.91-31.2,4.39-63.23,4.39-97.5c-69,0-148-153-19.5-319C710.17,689.33,684.3,603.6,835.5,510z"/>
	<path class="st5" d="M848,1194.5c-19.5,68-7,277-35,405l-0.41,0.07c0.27,2.78,0.41,5.59,0.41,8.43c0,47.5-38.5,86-86,86   s-86-38.5-86-86c0-8.46,1.22-16.64,3.5-24.36l-1,0.36c-22.17,9-66.5,37.6-66.5,80l2.34,7.5C694.81,1751.88,835.15,1799,986.5,1799   c156.12,0,300.53-50.14,418-135.2l-3.94-19.8c-17.26-91.4-84.76-341.91-98.06-368.5c-12-24-130-106-187.5-144   c-4-16.8-23.06-15-32.08-12c-5.62-11.02-16.27-18-27.9-18c0.4,12.46,4.3,23.8,7.48,30c-34.5,30-109,30-158.5-34.42l-26,4.42   l-5.62-10.5c-7.2,9.27-13.54,16.73-16.88,18.5c-1.55,0.82-3.25,1.45-5,1.92C856.17,1116.45,855.5,1168.35,848,1194.5z M995,1694   c47.5,0,86-38.5,86-86s-38.5-86-86-86c-19.54,0-37.56,6.52-52,17.5c-14.41,10.95-25.25,26.34-30.5,44.14   c-2.28,7.72-3.5,15.9-3.5,24.36C909,1655.5,947.5,1694,995,1694z M1284,1694c47.5,0,86-38.5,86-86s-38.5-86-86-86   c-19.54,0-37.56,6.52-52,17.5c-14.41,10.95-25.25,26.34-30.5,44.14c-2.28,7.72-3.5,15.9-3.5,24.36   C1198,1655.5,1236.5,1694,1284,1694z"/>
	<path class="st6" d="M675,1537c0.67-14.67,8.7-68.4,35.5-166c23.77-86.57,39.49-157.78,46.61-234   c-32.04,13.5-99.61,43.9-113.61,57.5c-17.5,17-45,131-46.5,194c-1.2,50.4-13.83,167-20,219c-6.17,11.33-14.8,38.5,0,56.5   c0-42.4,44.33-71,66.5-80l1-0.36c5.25-17.8,16.09-33.19,30.5-44.14V1537z"/>
	<path class="st4" d="M995,1694c47.5,0,86-38.5,86-86s-38.5-86-86-86c-19.54,0-37.56,6.52-52,17.5   c-14.41,10.95-25.25,26.34-30.5,44.14c-2.28,7.72-3.5,15.9-3.5,24.36C909,1655.5,947.5,1694,995,1694z"/>
	<path class="st7" d="M886.5,921c-3.5-15.67-19-42.9-53-26.5c-21.09,10.17-38.98,29.46-51.65,54.5   c-10.15,20.05-16.95,43.79-19.37,69.5c-0.65,6.87-0.98,13.88-0.98,21c0,34.27-1.48,66.3-4.39,97.5   c-7.12,76.22-22.84,147.43-46.61,234c-26.8,97.6-34.83,151.33-35.5,166v2.5c14.44-10.98,32.46-17.5,52-17.5   c44.65,0,81.36,34.03,85.59,77.57l0.41-0.07c28-128,15.5-337,35-405c7.5-26.15,8.17-78.05,2.5-83.08c1.75-0.47,3.45-1.1,5-1.92   c3.34-1.77,9.68-9.23,16.88-18.5c11.14-14.34,24.34-33,31.62-41.5c9.6-11.2,10.67-25.33,10-31c8.83-4.67,25.4-17.8,21-33   c-2.34-8.09-7.62-16.25-13.07-23c-4.8-5.93-9.73-10.77-12.93-13.5c-0.89-11.28-10.48-20.6-22.5-26.37V921z"/>
	<path class="st8" d="M727,1694c47.5,0,86-38.5,86-86c0-2.84-0.14-5.65-0.41-8.43c-4.23-43.54-40.94-77.57-85.59-77.57   c-19.54,0-37.56,6.52-52,17.5c-14.41,10.95-25.25,26.34-30.5,44.14c-2.28,7.72-3.5,15.9-3.5,24.36C641,1655.5,679.5,1694,727,1694z    M686,1597c0-5.52,4.48-10,10-10h41c0.55,0,1,0.45,1,1v10h14l10.96-6.66c1.33-0.8,3.04,0.15,3.04,1.71v28.9   c0,1.56-1.71,2.51-3.04,1.71L752,1617h-14v10c0,0.55-0.45,1-1,1h-41c-5.52,0-10-4.48-10-10V1597z"/>
	<path class="st8" d="M1370,1608c0,47.5-38.5,86-86,86s-86-38.5-86-86c0-8.46,1.22-16.64,3.5-24.36   c5.25-17.8,16.09-33.19,30.5-44.14c14.44-10.98,32.46-17.5,52-17.5C1331.5,1522,1370,1560.5,1370,1608z M1303,1599.5v-23   c0-10.22-8.28-18.5-18.5-18.5s-18.5,8.28-18.5,18.5v23c0,10.22,8.28,18.5,18.5,18.5S1303,1609.72,1303,1599.5z M1284.5,1631   c-10.22,0-18.5,8.28-18.5,18.5v1.5h37v-1.5C1303,1639.28,1294.72,1631,1284.5,1631z"/>
	<path class="st9" d="M1095.84,1055.45c108.48-66.23,93.07-193.7,85.66-348.99c-7.81,7.32-18.31,13.68-30.67,18.14   c-13.8,4.98-29.91,7.57-47.16,6.46c-20.36-1.31-42.3-7.77-63.91-21.57c-14.51,7.33-31.06,14.22-49.81,20.38   c-12.3,4.04-25.55,7.77-39.8,11.1c-23.7,5.55-50.17,10.01-79.65,13.02c0,13.52-0.2,26.01-0.56,37.5L968.5,1014v19l-13.93,13.84   c19.37,15.18,61.71,41.58,85.19,33.66c7.95-2.68,15.57-5.34,22.74-8.3C1074.74,1067.15,1085.82,1061.57,1095.84,1055.45z    M979,962.5c32.83,2.83,109,6.8,151,0c-0.84,7.02-2.28,13.71-4.28,20c-5.61,17.64-15.6,32.17-29.03,42   c-15.92,11.65-36.67,16.7-60.69,12.5c-20.25-3.54-33.92-16.32-42.81-31c-4.04-6.67-7.09-13.74-9.32-20.5   C981.03,976.87,979.52,968.72,979,962.5z"/>
	<path class="st7" d="M904,1097.08c49.5,64.42,124,64.42,158.5,34.42c-3.18-6.2-7.09-17.54-7.48-30c-0.31-9.72,1.52-20.11,7.48-29.3   c-7.17,2.96-14.79,5.62-22.74,8.3c-23.48,7.92-65.83-18.48-85.19-33.66L904,1097.08z"/>
	<path class="st6" d="M1130,962.5c-42,6.8-118.17,2.83-151,0c0.52,6.22,2.03,14.37,4.88,23c41.7,11.6,111.93,2.83,141.84-3   C1127.72,976.21,1129.16,969.52,1130,962.5z"/>
	<path class="st2" d="M1125.72,982.5c-29.91,5.83-100.14,14.6-141.84,3c2.23,6.77,5.28,13.83,9.32,20.5   c42.81-7.5,85.19,0.86,103.5,18.5C1110.12,1014.67,1120.11,1000.14,1125.72,982.5z"/>
	<path class="st10" d="M993.19,1006c8.89,14.68,22.56,27.46,42.81,31c24.02,4.2,44.77-0.85,60.69-12.5   C1078.38,1006.86,1036,998.5,993.19,1006z"/>
	<path class="st10" d="M1231,610.5c112.5-170-206.5-217.5-395.5-100.5C684.3,603.6,710.17,689.33,742,720.5   c-128.5,166-49.5,319,19.5,319c0-7.12,0.33-14.13,0.98-21c2.42-25.71,9.22-49.45,19.37-69.5l-20.35-48l88-105.5l20.44-4   c0.36-11.49,0.56-23.98,0.56-37.5c29.47-3.01,55.94-7.48,79.65-13.02c14.25-3.33,27.5-7.06,39.8-11.1   c18.75-6.16,35.3-13.04,49.81-20.38c21.61,13.8,43.55,20.26,63.91,21.57c17.25,1.11,33.36-1.49,47.16-6.46   c12.36-4.46,22.86-10.82,30.67-18.14c7.41,155.29,22.83,282.78-85.66,348.99l1.16,1.02c23.17,13.99,51.15,21.45,84.5,17.53   c140.5-16.51,100.38-128.8,49.5-278C1195.12,690.79,1324.5,664.5,1231,610.5z"/>
	<path class="st6" d="M761.5,901l88-105.5l72.43,167c-4.8-5.93-9.73-10.77-12.93-13.5c-0.89-11.28-10.48-20.6-22.5-26.37V921   c-3.5-15.67-19-42.9-53-26.5c-21.09,10.17-38.98,29.46-51.65,54.5L761.5,901z"/>
	<path class="st6" d="M914,1018.5c8.83-4.67,25.4-17.8,21-33l18.5,39l-75.5,77l-5.62-10.5c4.59-5.91,9.54-12.56,14.27-18.92   c6.75-9.08,13.07-17.58,17.36-22.58C913.6,1038.3,914.67,1024.17,914,1018.5z"/>
	<path class="st2" d="M869.94,791.5l-20.44,4l72.43,167c5.46,6.75,10.73,14.91,13.07,23l18.5,39l-75.5,77   c7.95,4.71,18.08,3.45,24.63-3.06l51.93-51.6l10.35-9.1c6.59-5.79,8.63-15.2,5.04-23.2L869.94,791.5z"/>
	<path class="st7" d="M1833.5,2375.5c-16.8-15.2-35-15-42-13l-133.5-57c-14.67-11-49.1-30.2-69.5-19l39.96,175.02   c16.51,5.55,30.63,5.38,36.04,4.48c7,5.28,20.63,11.83,36,11.47v6.03h149.93C1872.86,2443.5,1854.5,2394.5,1833.5,2375.5z"/>
	<path class="st10" d="M1943.5,1416.5c-35-51.5-9.5-160,0-304c23.2-2.8,83-63.83,110-94l8.5-6.49c-12.22,12.47-23.14,46.88,0,119.49   c17.46,54.78,69.36,88.5,125.76,88.5c14.72,5.41,31.4,7.39,48.74,2.5l8.5,33c7.17-17.42,20.8-26.57,36.5-29.27   c-7.17-81.58-32-249.53-74-268.73c-29.33-21.83-95.8-53.6-127-6c-35.83-13-131.6-24-228,36c-120.5,75-92.5,282.5-15.5,307   s18,65-24,152s9.5,199.5,101.5,205.68c39.78-21.94,104.54-48.49,136.5-60.68c3.5-4.67,12.78-14,21.89-14   c3.12-20.5,1.83-44.68-11.39-65.37C2013.89,1500.74,1975.73,1463.92,1943.5,1416.5z"/>
	<path class="st10" d="M2217.5,1438.5c-4.89,5.82-13.5,14.41-24.5,23.75c-16.07,36.16-9.11,68.78,0.28,90.75   c11.72-17,39.22-3.5,39.72,13c49.17,13.67,165.7,55.2,238.5,112c13.57,10.59,24.71,23.32,33.85,37.5l16.38-17   c17.95-23.96,31.36-56.36,34.27-99.5c10.01-148.5-98.5-152.5-138.5-195s39.5-144,28.5-246s-135-166-156-164   c34.08,71.5,33.33,199.27,21,233.9c34.41,9.03,66.42,40.99,57,79.6c-4.84,19.84-15.22,39.57-30,53.2   c-17.26,15.92-40.53,23.54-68,13.3C2267.6,1405.2,2234,1430,2217.5,1438.5z"/>
	<path class="st4" d="M2368,1307.5c9.42-38.61-22.59-70.57-57-79.6c-30.5,1.6-52,33.6-51,79.6s48,70.4,78,53.2   C2352.78,1347.07,2363.16,1327.34,2368,1307.5z"/>
	<path class="st4" d="M2290,994c-20.4-42.8-63.5-42.17-82.5-36.5c42,19.2,66.83,187.15,74,268.73c9.4-1.62,19.55-0.93,29.5,1.67   C2323.33,1193.27,2324.08,1065.5,2290,994z"/>
	<path class="st4" d="M2245,1255.5c-18.8,45.09-26,99.49,25,118.5c27.47,10.24,50.74,2.62,68-13.3c-30,17.2-77-7.2-78-53.2   s20.5-78,51-79.6c-9.95-2.6-20.1-3.29-29.5-1.67C2265.8,1228.93,2252.25,1238.11,2245,1255.5z"/>
	<path class="st9" d="M1943.5,1112.5c-9.5,144-35,252.5,0,304c32.23,47.42,70.39,84.24,118,95.63c4.1,0.98,8.26,1.78,12.5,2.37   c39.34,5.5,88.42-26.29,119-52.25c11-9.34,19.61-17.93,24.5-23.75c-23.09,12.9-70.87,25.52-101.5,32.4v1.6c0,5.52-4.48,10-10,10   h-20.97c-5.26,0-9.53-4.27-9.53-9.53c0-5.04,3.92-9.21,8.95-9.51l18.21-1.1c1.19-0.07,2.36,0.28,3.31,0.99l10.03,7.55   c30.63-6.88,78.2-19.89,101.5-32.4c16.35-8.78,50.1-33.3,52.5-64.5c-51-19-44-73.5-25-118.5l-8.5-33   c-17.34,4.89-34.02,2.91-48.74-2.5c-56.4,0-108.3-33.72-125.76-88.5c-23.14-72.61-12.22-107.02,0-119.49l-8.5,6.49   C2026.5,1048.67,1966.7,1109.7,1943.5,1112.5z M2061.5,1462.25c-28.4,0-38.17-33.17-39.5-49.75c2.76-0.07,5.59-0.22,8.5-0.44   c44.72-3.37,105.36-23.04,131.5-33.06c0,9.32-1.03,17.62-2.91,25C2146.07,1455.18,2092.53,1462.25,2061.5,1462.25z"/>
	<path class="st7" d="M2074,1514.5c-4.24-0.59-8.4-1.39-12.5-2.37c13.22,20.69,14.51,44.87,11.39,65.37   c-2.36,15.47-7.23,28.83-11.39,37c-5,14.33-7,43.3,25,44.5s90.33-58.83,115.5-89c-2.74-4.53-5.84-10.26-8.72-17   c-9.39-21.97-16.35-54.59-0.28-90.75C2162.42,1488.21,2113.34,1520,2074,1514.5z"/>
	<path class="st2" d="M2022,1412.5c1.33,16.58,11.1,49.75,39.5,49.75c12.33-11.25,42.2-35.77,63-43.85   c-13.37,4.31-28.89,7.98-44.5,9.1c-33.6,2.41-47-9.29-49.5-15.44C2027.59,1412.28,2024.76,1412.43,2022,1412.5z"/>
	<path class="st10" d="M2061.5,1462.25c31.03,0,84.59-7.07,97.59-58.25c-6.62,3.66-19.18,9.45-34.59,14.4   C2103.7,1426.48,2073.83,1451,2061.5,1462.25z"/>
	<path class="st6" d="M2162,1379c-26.14,10.02-86.78,29.7-131.5,33.06c2.5,6.15,15.9,17.85,49.5,15.44   c15.61-1.12,31.13-4.8,44.5-9.1c15.41-4.96,27.97-10.74,34.59-14.4C2160.97,1396.62,2162,1388.32,2162,1379z"/>
	<path class="st4" d="M2086.5,1659c-32-1.2-30-30.17-25-44.5c4.16-8.17,9.03-21.53,11.39-37c-9.11,0-18.39,9.33-21.89,14   c-31.96,12.19-96.72,38.74-136.5,60.68c-7.52,4.15-14.16,8.13-19.5,11.82c-41.99,29.01-72.5,105-116,178s-94.5,145.5-103,160.5   s-16,26.5-29.5,34s-22.5,10.5-30,31s-18.5,25-32.5,35c-11.2,8-25.86,21-31.79,26.5l38.29,167l-2-9.5c20.4-11.2,54.83,8,69.5,19   l133.5,57c7.98-11.05,33.68-17.39,58.93-20.64c15.87-2.04,31.57-2.86,42.57-2.86h29.5c8.67,5.17,28.7,23.5,39.5,55.5   s4.5,72.67,0,89c23.52,2.21,55.78,4.89,92,7.38c89.28,6.13,202.7,11.1,269,5.12c32.87-2.96,58.54-14.61,79.44-33.5   c53.17-48.06,75.48-143.06,107.06-261.5c35.2-132,36.67-207.67,33-229c1.7-47.23,15.01-175.55-37.15-256.5   c-9.14-14.18-20.28-26.91-33.85-37.5c-72.8-56.8-189.33-98.33-238.5-112c-0.5-16.5-28-30-39.72-13c2.88,6.74,5.98,12.47,8.72,17   C2176.83,1600.17,2118.5,1660.2,2086.5,1659z"/>
	<path class="st4" d="M1893,2339c-11,0-26.7,0.82-42.57,2.86c-25.25,3.25-50.95,9.59-58.93,20.64c7-2,25.2-2.2,42,13   c21,19,39.36,68,16.93,108H1962c4.5-16.33,10.8-57,0-89s-30.83-50.33-39.5-55.5H1893z"/>
	<path class="st11" d="M1089.25,859.7l-6.5,7.61c18.45,15.74,20.08,26.22,17.84,31.93c-1.21,3.09-3.84,5.86-7.76,8.07   c-3.91,2.2-8.8,3.66-13.88,4.22l1.1,9.94c6.17-0.69,12.4-2.48,17.68-5.45c5.27-2.97,9.89-7.29,12.18-13.14   C1114.67,890.73,1108.3,875.95,1089.25,859.7z"/>
	<path class="st11" d="M864.91,1360.85l-6.83,7.3c74.84,69.96,173.34,84.71,213.58,83.35l-0.34-10   C1032.91,1442.81,937.28,1428.49,864.91,1360.85z"/>
	<path class="st11" d="M849.19,1106.6c-5.12,1.39-10.92,1.27-13.57,0.94l-1.24,9.92c3.53,0.44,10.7,0.62,17.43-1.21   c2.02-0.55,4.08-1.3,6.03-2.33l-4.68-8.84C852.01,1105.69,850.66,1106.2,849.19,1106.6z"/>
	<path class="st11" d="M1021.63,1570.23c-4.11-4.28-10.88-4.54-15.29-0.57l-7.41,6.66c-5.42,4.87-5.78,13.24-0.8,18.56   c0.64,0.68,0.58,1.76-0.12,2.37l-16.21,14.07c-0.82,0.72-2.07,0.66-2.82-0.13c-4.85-5.09-12.86-5.39-18.09-0.7l-4.42,3.97   c-4.76,4.28-4.88,11.69-0.27,16.12l6.83,6.56c9.5,9.12,24.45,9.31,34.17,0.43l28.53-26.06c10.38-9.47,10.91-25.63,1.19-35.76   L1021.63,1570.23z M1018.99,1604.13l-28.53,26.05c-5.83,5.33-14.8,5.22-20.5-0.25l-6.83-6.56c-0.42-0.41-0.41-1.08,0.03-1.47   l4.42-3.97c1.21-1.08,3.05-1.01,4.17,0.16c4.44,4.65,11.75,5,16.61,0.78l16.21-14.07c4.99-4.33,5.38-11.94,0.87-16.76   c-1.16-1.22-1.07-3.16,0.18-4.28l7.41-6.66c0.4-0.36,1.02-0.34,1.39,0.05l5.29,5.52   C1025.54,1588.75,1025.22,1598.45,1018.99,1604.13z"/>
	<path class="st11" d="M642.79,1578.94l-1.09,0.39l-0.08,0.04c-11.59,4.7-28.79,14.43-43.18,28.53C584.05,1622,572,1640.96,572,1664   l0.23,1.49l2.34,7.5l9.55-2.98l-2.1-6.73c0.25-19.05,10.27-35.34,23.43-48.23c13.26-13,29.22-22.04,39.81-26.36l0.97-0.36   L642.79,1578.94z"/>
	<path class="st11" d="M760.37,1587.07l-9.76,5.93H743v-5c0-3.31-2.69-6-6-6h-41c-8.28,0-15,6.72-15,15v21c0,8.28,6.72,15,15,15h41   c3.31,0,6-2.69,6-6v-5h7.61l9.76,5.93c4.66,2.83,10.63-0.53,10.63-5.98v-28.9C771,1587.6,765.03,1584.24,760.37,1587.07z M743,1603   h4v9h-4V1603z M691,1618v-21c0-2.76,2.24-5,5-5h37v31h-37C693.24,1623,691,1620.76,691,1618z M757,1614.19v-13.38l4-2.43v18.23   L757,1614.19z"/>
	<path class="st11" d="M1121.76,714.26c-16.81,4.3-31.05,19.55-33.23,40.73l9.94,1.03c1.78-17.15,13.14-28.84,25.76-32.07   c12.28-3.14,26.6,1.54,35.28,19.24l8.98-4.4C1157.86,717.1,1138.91,709.87,1121.76,714.26z"/>
	<path class="st11" d="M1284.5,1553c-12.98,0-23.5,10.52-23.5,23.5v23c0,12.98,10.52,23.5,23.5,23.5s23.5-10.52,23.5-23.5v-23   C1308,1563.52,1297.48,1553,1284.5,1553z M1284.5,1613c-7.46,0-13.5-6.04-13.5-13.5v-23c0-7.46,6.04-13.5,13.5-13.5   s13.5,6.04,13.5,13.5v23C1298,1606.96,1291.96,1613,1284.5,1613z"/>
	<path class="st11" d="M1284.5,1626c-12.98,0-23.5,10.52-23.5,23.5v6.5h47v-6.5C1308,1636.52,1297.48,1626,1284.5,1626z    M1284.5,1636c6.25,0,11.48,4.24,13.03,10h-26.05C1273.02,1640.24,1278.25,1636,1284.5,1636z"/>
	<path class="st11" d="M1191.5,676.63c0.22,8.33-4.32,17.65-13.42,26.19l6.84,7.3c10.35-9.7,16.89-21.58,16.58-33.74L1191.5,676.63z   "/>
	<path class="st11" d="M1261.82,1513.68c-16.99-62.13,13.23-99.41,29.42-110l-5.48-8.36c-13.38,8.75-32.8,31.08-37.77,65.79   c-3-11.48-6.9-24.24-11.17-37.13c-9.15-27.68-19.99-56.11-27.19-73.86l-9.26,3.76c7.13,17.59,17.89,45.81,26.96,73.24   c4.53,13.72,8.62,27.18,11.63,39c3.02,11.9,4.86,21.8,5.04,28.52l3.83-0.11c0.86,6.93,2.27,14.2,4.35,21.79L1261.82,1513.68z"/>
	<path class="st11" d="M1016.12,1394.97l-4.24,9.06c14.08,6.61,50.75,17.78,86.21,9.85l-2.18-9.76   C1063.37,1411.39,1029.04,1401.03,1016.12,1394.97z"/>
	<path class="st11" d="M1125.45,640.28l-8.9-4.57c-11.05,21.53-35.53,47.34-79.04,69.32l4.51,8.93   C1086.9,691.29,1113.19,664.15,1125.45,640.28z"/>
	<path class="st11" d="M1058.6,919.62l7.8-6.25c-1.72-2.16-4.8-5.02-8.8-7.21c-4.03-2.21-9.31-3.9-15.25-3.12l1.3,9.92   c3.26-0.42,6.4,0.47,9.15,1.98C1055.58,916.46,1057.65,918.45,1058.6,919.62z"/>
	<path class="st11" d="M997.8,1067.93c-15.54-7.35-30.68-17.6-40.15-25.02l-6.17,7.87c9.89,7.75,25.67,18.45,42.04,26.19   c8.18,3.88,16.68,7.09,24.77,8.78c8.03,1.68,16.09,1.95,23.13-0.53l-3.32-9.44c-4.64,1.64-10.65,1.67-17.76,0.18   C1013.28,1074.48,1005.57,1071.61,997.8,1067.93z"/>
	<path class="st11" d="M1087.37,1117.23l-8.91,4.54c7.83,15.37,5.06,42.39-30.91,68.69l5.9,8.08   C1091.79,1170.5,1098.21,1138.52,1087.37,1117.23z"/>
	<path class="st11" d="M1115.17,681.77c-12.24,13.1-28.11,20.3-38.83,22.86l2.32,9.73c12.28-2.94,30.01-10.99,43.82-25.76   c13.96-14.95,23.78-36.66,19.98-66.24l-9.92,1.28C1135.94,650.05,1127.26,668.84,1115.17,681.77z"/>
	<path class="st11" d="M902.47,1125.47l-9.94,1.06c2.92,27.21,27.68,44.67,54.62,55.51c27.34,11,59.09,16.09,80.03,17.45l0.64-9.98   c-20.23-1.31-50.87-6.26-76.94-16.75C924.41,1162.11,904.75,1146.66,902.47,1125.47z"/>
	<path class="st11" d="M761.05,1023.29l2.85-9.58c-12.94-3.86-38.68-19.6-39.41-51.33l-10,0.23   C715.37,1000.49,746.01,1018.81,761.05,1023.29z"/>
	<path class="st11" d="M862.18,921.37c7.24,0.37,15.14,2.41,22.16,5.77l4.32-9.02c-8.14-3.91-17.33-6.3-25.97-6.74   c-8.54-0.44-17.15,1.02-23.56,5.53l5.75,8.18C848.77,922.35,854.84,920.99,862.18,921.37z"/>
	<path class="st11" d="M879.37,955.31c4.01-1.15,15.64-2.9,27.41,0.04l2.43-9.7c-13.82-3.46-27.27-1.48-32.59,0.04L879.37,955.31z"/>
	<path class="st11" d="M975.22,736.64c12.85-2.07,27.11,3.08,38.07,15.21l7.42-6.71c-12.89-14.25-30.39-21.06-47.07-18.38   c-16.83,2.7-31.8,14.89-39.83,36.49l9.37,3.48C950.17,747.94,962.52,738.69,975.22,736.64z"/>
	<path class="st11" d="M879.29,975.12l5.42,8.41c6.33-4.08,15.13-8.54,23.82-11.01c8.93-2.54,16.5-2.62,21.42,0.29l5.1-8.6   c-8.58-5.09-19.63-4.04-29.25-1.31C895.93,965.69,886.23,970.64,879.29,975.12z"/>
	<ellipse class="st12" cx="983" cy="817.5" rx="13" ry="15.5"/>
	<ellipse class="st12" cx="1131" cy="815.5" rx="13" ry="15.5"/>
	<path class="st11" d="M2547.5,1972.12l-10-0.24c0.78-33.37-17.31-61.13-42.35-73.05c-24.73-11.79-57.1-8.49-86.02,22.1l-7.26-6.86   c31.58-33.41,68.53-38.11,97.59-24.27C2528.21,1903.5,2548.37,1934.99,2547.5,1972.12z M1683.1,2198.37l8.8-4.74   c-5.96-11.07-17.59-28.18-33.31-44.05c-15.69-15.83-35.81-30.79-58.8-36.91l-2.58,9.66c20.61,5.48,39.24,19.11,54.28,34.29   C1666.49,2171.77,1677.56,2188.1,1683.1,2198.37z M1633.13,2357.49l0.74-9.98c-13.26-0.98-22.15,7.69-25.09,12.31l8.44,5.36   C1618.95,2362.47,1624.79,2356.87,1633.13,2357.49z M1676.35,2418.92l7.3-6.84c-12.44-13.29-27.27-15.12-39.89-12.06   c-12.28,2.97-22.75,10.59-27.69,16.89l-1.07,1.36v6.36h10v-2.78c4.02-4.39,11.91-9.88,21.11-12.12   C1655.87,2407.37,1666.79,2408.71,1676.35,2418.92z M2468.42,1681.94c13.08,10.2,23.86,22.5,32.72,36.27l8.41-5.42   c-9.4-14.6-20.91-27.76-34.97-38.73L2468.42,1681.94z M2026.04,1171.76l8.92-4.52c-10.02-19.77-26.56-27.53-41.56-23.1   c-14.72,4.35-25.4,19.75-25.4,40.86h10c0-17.89,8.82-28.49,18.23-31.27C2005.35,1151.04,2017.56,1155.03,2026.04,1171.76z    M2037.77,1602.01c-11.3,18.54-17.43,37.57-17.64,54.36c-0.27,21.13,8.93,39.13,29.09,46.8c15.97,6.08,33.65,2.41,48.62-3.89   c15.08-6.34,28.31-15.74,35.98-22.54l-6.64-7.48c-6.99,6.2-19.31,14.95-33.22,20.81c-14.02,5.9-28.75,8.48-41.18,3.76   c-15.34-5.83-22.89-19.33-22.66-37.33c0.24-18.21,8.56-40.57,24.86-61.97l0.01-0.02l0.01-0.01c1.5-2,4.37-5.15,7.84-7.75   c1.24-0.93,2.48-1.72,3.7-2.37c-2.5,11.64-6.26,21.5-9.5,27.85l-0.15,0.3l-0.11,0.32c-2.69,7.7-4.75,19.71-1.43,30.32   c1.7,5.43,4.85,10.57,10.08,14.42c5.22,3.83,12.13,6.08,20.88,6.41c9.43,0.35,20.09-3.75,30.68-9.82   c10.74-6.14,22.09-14.7,33.08-24.12c21.99-18.86,43.06-41.62,55.77-56.86l2.28-2.74l-1.84-3.05c-2.64-4.36-5.63-9.89-8.4-16.37   l-9.2,3.92c2.36,5.53,4.87,10.4,7.22,14.52c-12.61,14.84-32.13,35.65-52.34,52.99c-10.74,9.2-21.55,17.32-31.54,23.03   c-10.12,5.8-18.76,8.75-25.33,8.5c-7.25-0.27-12.09-2.09-15.34-4.47c-3.23-2.38-5.28-5.59-6.45-9.35   c-2.4-7.65-1.03-17.13,1.23-23.75c4.35-8.66,9.29-22.38,11.7-38.18l-4.94-0.75l4.94,0.75l0.88-5.75h-5.82   c-6.16,0-11.82,3.08-16.05,6.25c-3.72,2.79-6.84,6.03-8.92,8.58c-32.42,12.41-96.26,38.64-135.83,60.47l4.82,8.75   C1950.9,1637.81,2003.45,1615.6,2037.77,1602.01z M1943.78,2269.74c22.69,3.87,44.87,2.86,58.5,0.7l-1.56-9.88   c-12.7,2.01-33.77,2.99-55.25-0.68c-21.55-3.68-42.8-11.91-56.72-27.69l-7.5,6.62C1897.33,2257.03,1921.17,2265.88,1943.78,2269.74   z M1727.85,2462.12c-9.09,7.39-18.61,10.14-27.47,10.35c-13.99,0.33-26.55-5.7-32.87-10.46l-6.02,7.98   c6.89,5.19,19.42,11.41,34.01,12.36v1.15h10v-1.37c9.46-1.06,19.33-4.67,28.65-12.25L1727.85,2462.12z M2449.13,1781.4l-6.26-7.8   c-38.47,30.94-71.79,76.1-97.77,119.7c-26,43.66-44.86,86.12-54.3,111.99l9.4,3.42c9.23-25.29,27.82-67.18,53.5-110.29   C2379.4,1855.27,2412,1811.26,2449.13,1781.4z M2245.69,2247.86l5.62,8.28c40.19-27.31,62.86-17.51,68.12-12.14l7.14-7   C2316.5,2226.71,2287.9,2219.17,2245.69,2247.86z M1763.23,2366.85c-13.81-12.06-30.16-23.84-46.04-29.55l-3.38,9.4   c14.12,5.09,29.35,15.9,42.84,27.68c13.41,11.72,24.72,24.06,30.97,31.77l7.76-6.3C1788.8,2391.73,1777.1,2378.97,1763.23,2366.85z    M2207.38,2250.24l-2.73,7.26c-24.35-1.95-48.52-1.58-68.78,3.13c-56.24,13.07-157.95,37.01-203.15,47.68   c-6.61-2.03-16.2-3.09-25.01,0.31c-9.08,3.52-16.42,11.45-19.02,25.42c-9.27,0.16-20.91,0.82-32.97,2.15l3.9-78.45l-1.93-1.59   c-92.66-76.65-114.38-247.45,10.11-457.1l-8.6-5.1c-124.68,209.96-106.46,386.19-9.81,468.26l-3.74,75.26   c-11.42,1.63-22.88,3.9-32.68,7.02c-10.68,3.41-20.51,8.15-25.52,15.08l8.1,5.86c2.97-4.12,9.99-8.07,20.46-11.41   c10.18-3.25,22.59-5.6,35.06-7.2c15.66-2.01,31.14-2.82,41.93-2.82h28.06c8.26,5.47,26.25,22.62,36.2,52.1   c5.13,15.18,6.25,32.66,5.48,48.53c-0.77,15.85-3.41,29.73-5.56,37.54l9.64,2.66c2.35-8.53,5.11-23.14,5.91-39.71   c0.81-16.55-0.32-35.4-5.99-52.22c-11.18-33.12-31.98-52.41-41.68-58.19l-1.18-0.71h-24.98c2.28-9.68,7.32-14.07,12.42-16.05   c6.52-2.52,14.29-1.57,19.52,0.27l1.38,0.48c0,0,149.12-35.13,205.91-48.33c19.83-4.61,44.26-4.85,69.42-2.59   c5.27,0.47,10.55,1.05,15.82,1.72c38.98,4.96,76.79,14.81,98.08,21.75l3.1-9.5c-20.75-6.77-56.59-16.16-94.26-21.41   c3.87-13,11.87-30.17,25.15-44.71c15.09-16.52,36.93-29.63,67.56-29.63v-10c-33.87,0-58.28,14.64-74.94,32.88   c-15,16.42-23.75,35.76-27.8,50.18c-1.76-0.21-3.53-0.41-5.29-0.6l1.83-4.91l-4.74-1.56l4.74,1.56   c22.63-68.69,94.92-211.88,130.62-279.22l-8.84-4.68C2303.01,2036.76,2230.38,2180.51,2207.38,2250.24z M1684.02,2088.01   c10.92,0.8,17.3,5.95,19.81,9.75l8.34-5.52c-4.32-6.54-13.6-13.19-27.42-14.2c-13.83-1.02-31.86,3.61-54.08,18.84l5.66,8.24   C1657.31,2090.75,1673.11,2087.21,1684.02,2088.01z M2279.2,1945.95c-22.84,38.62-19.32,78.1-14.47,93.55l9.54-3   c-4.15-13.21-7.63-49.67,13.53-85.45L2279.2,1945.95z M2248.73,1354.29c-10.08-11.31-13.69-26.49-12.8-43.62   c0.9-17.16,6.31-35.79,13.68-53.23l-9.22-3.88c-7.62,18.04-13.46,37.86-14.44,56.58c-0.98,18.74,2.9,36.88,15.32,50.81   L2248.73,1354.29z M2340.49,1365.04l-4.98-8.68c-26.24,15.05-69.58-6.22-70.51-48.97c-0.3-13.66,1.46-25.93,4.83-36.35l-9.52-3.08   c-3.75,11.62-5.63,25.01-5.31,39.65C2256.07,1356.86,2306.73,1384.39,2340.49,1365.04z M2420.12,1487.65   c24.5,27.83,49.01,58.77,46.39,103.56c-1.12,19.13-7.83,36.51-17.99,52.06l8.38,5.46c10.92-16.73,18.35-35.76,19.59-56.94   c2.88-49.21-24.36-82.9-48.86-110.75c-12.44-14.14-23.93-26.5-31.44-38.97c-7.39-12.26-10.5-23.93-6.88-36.71l-9.62-2.72   c-4.63,16.34-0.31,30.92,7.93,44.59C2395.73,1460.69,2408.06,1473.94,2420.12,1487.65z M2035.5,1290h-10   c0,5.43-3.33,12.9-8.38,20.65c-4.89,7.51-10.8,14.38-14.69,18.35l-1.47,1.5l0.04,2.09c0.1,5.26,1.58,13.1,5.93,19.74   c4.53,6.91,12.14,12.41,23.67,12.17l-0.2-10c-7.67,0.16-12.22-3.25-15.11-7.65c-2.58-3.94-3.8-8.73-4.16-12.48   c4.17-4.45,9.68-11.05,14.37-18.27C2030.67,1308.18,2035.5,1298.57,2035.5,1290z M2114.9,1466.02l2.2,9.76   c15.39-3.46,35.12-8.37,53.92-14.04c18.68-5.63,36.81-12.12,48.86-18.85c8.67-4.47,21.61-13.09,32.76-24.66   c11.14-11.55,21.02-26.59,22.35-43.85l-9.98-0.76c-1.07,13.94-9.19,26.9-19.57,37.67c-10.34,10.72-22.4,18.73-30.23,22.77   l-0.08,0.03l-0.07,0.05c-11.04,6.16-28.31,12.42-46.92,18.03C2149.62,1457.75,2130.14,1462.6,2114.9,1466.02z M2048.24,1354.56   l1.52,9.88c5.34-0.82,9.36-1.69,12.24-2.46c2.73-0.73,4.8-1.46,5.98-2.14l-4.96-8.68c0.02-0.01-0.97,0.46-3.6,1.16   C2056.95,1352.98,2053.3,1353.78,2048.24,1354.56z M1956.05,1113.35c4.2-2.14,8.76-5.02,13.52-8.4   c9.53-6.75,20.19-15.74,30.88-25.5c16.11-14.71,32.47-31.36,45.37-45.16c-4.63,20.78-3.31,52.52,11.42,98.73   c13.95,43.77,49,74.54,90.89,86.47l2.74-9.62c-38.97-11.09-71.27-39.59-84.11-79.89c-23.01-72.21-11.35-104.1-1.19-114.47   c2.57-2.62,4.93-3.78,6.51-4.13l-2.16-9.76c-3.78,0.84-7.66,3.1-11.2,6.61l-8.63,6.58l-0.32,0.36c-13.42,14.99-35,37.66-56.07,56.9   c-10.54,9.62-20.86,18.31-29.91,24.72c-4.53,3.21-8.66,5.8-12.28,7.65c-3.69,1.88-6.55,2.85-8.61,3.1l1.2,9.92   C1947.84,1117.01,1951.92,1115.46,1956.05,1113.35z M2163.02,1642.41l6.96,7.18c26.04-25.24,47.26-46.92,54.63-54.63l-7.22-6.92   C2210.1,1595.66,2188.98,1617.25,2163.02,1642.41z M2074.69,1509.55l-1.38,9.9c27.98,3.92,59.72-9.73,86.35-26.47l-5.32-8.46   C2128.08,1501.02,2098.97,1512.95,2074.69,1509.55z M2186.04,1224.69l3.45-9.38c-18.41-6.76-31.92-15.65-40.24-24.21   c-8.64-8.87-10.65-16.16-9.46-20.18l-9.58-2.84c-2.81,9.48,2.61,20.48,11.87,30C2151.66,1207.92,2166.54,1217.53,2186.04,1224.69z"/>
	<path class="st13" d="M2116,1470.9l-10.03-7.55c-0.95-0.71-2.12-1.06-3.31-0.99l-18.21,1.1c-5.03,0.3-8.95,4.47-8.95,9.51   c0,5.26,4.27,9.53,9.53,9.53H2106c5.52,0,10-4.48,10-10V1470.9z"/>
	<ellipse transform="matrix(0.1723 -0.9851 0.9851 0.1723 432.661 2990.8923)" class="st2" cx="1996" cy="1238" rx="21" ry="13"/>
	
		<ellipse transform="matrix(0.1723 -0.9851 0.9851 0.1723 536.4689 3136.2898)" class="st2" cx="2134.42" cy="1248.93" rx="21" ry="13"/>
	<ellipse class="st2" cx="596.09" cy="2495.33" rx="64.44" ry="20.89"/>
	<ellipse class="st14" cx="595.74" cy="2378.84" rx="81.08" ry="9.21"/>
	<path class="st4" d="M601.05,2115.39c-73.46,106.37-29.76,230.74-30.64,235.64c8.73,12.99,16.22,38.38,26.53,25.41   C665.44,2315.75,622.61,2164.45,601.05,2115.39z"/>
	<path class="st2" d="M591.49,2384.51c29.88-16.22,50.24-71.63,49.22-107.29c-10.81,15.26-28.14,44.01-47.09,44.26   c-15.8,0.21-33.38-25.23-43.2-40.36C547.34,2314.8,554.18,2370.82,591.49,2384.51z"/>
	<path class="st4" d="M721.16,2193.54c-112.4,63.85-127.13,194.85-130.06,198.87c2.21,15.5,1.41,21.54,16.34,14.35   C695.52,2381.89,719.23,2247.09,721.16,2193.54z"/>
	<path class="st4" d="M496.63,2194.53c41.91,7.33,100.67,197.61,102.83,202.1c-4.99,14.85-9.81,17.35-23.24,7.57   C493.77,2363.8,488.81,2247.59,496.63,2194.53z"/>
	<path class="st2" d="M655.58,2496.04c20.96-15.58,23.37-82.5,21.24-118.26c-24.6,12.11-132.75,11.54-161.81,0.35   c1.77,36.35,10.2,110.97,25.49,121.45C559.63,2512.68,629.38,2515.51,655.58,2496.04z"/>
	<path class="st15" d="M595.74,2163.57c-4.84,37.18-11.61,117.97,0,143.75"/>
	<path class="st15" d="M512.54,2238.28c0,4.25,13.81,102.32,44.97,123.21"/>
	<path class="st15" d="M694.53,2240.4c-8.26,24.2-40.51,102.11-69.4,123.92"/>
</g>
</svg>